# xmcd
#
# Track frame offsets: 
#        150
#        900
#        1650
#        51875
#        332550
#
# Disc length: 4440 seconds
#
# Revision: 0
# Processed by: cddbd v1.5PL3 Copyright (c) Steve Scherf et al.
# Submitted via: ExactAudioCopy v0.95a3
#
DISCID=28115605
DTITLE=Tommy heavenly6 - Wait till I can dream
DYEAR=2003
DGENRE=JPop
TTITLE0=Wait till I can dream
TTITLE1=Swear
TTITLE2=melancholy power++
TTITLE3=CCCD
TTITLE4=CCCD
EXTD=
EXTT0=
EXTT1=
EXTT2=
EXTT3=
EXTT4=
PLAYORDER=
